<?xml version="1.0" encoding="UTF-8"?>
<svg id="Layer_1" data-name="Layer 1" xmlns="http://www.w3.org/2000/svg" viewBox="0 0 74.16 97.89">
  <path fill="#000" d="M52.91,21.59l.65-1.32h-11.07c-.02-.1-.04-.22-.07-.38-.21-1.14-.72-3.86-1.26-6.75h0c-.36-1.9-.73-3.87-1.04-5.51-.16-.82-.3-1.56-.41-2.17s-.21-1.08-.27-1.38c-.07-.31-.16-.62-.29-.9-.13-.29-.28-.56-.46-.81-.53-.76-1.28-1.35-2.13-1.76-.85-.41-1.81-.63-2.8-.63-.61,0-1.23.08-1.84.26-.61.18-1.21.45-1.78.83-.72.48-1.38.73-1.96.86-.29.07-.55.1-.79.12-.23.02-.44.03-.62.03s-.32,0-.46,0c-.15,0-.29,0-.46-.03-.24-.03-.53-.09-.93-.25-.4-.15-.91-.39-1.55-.77-1.16-.69-2.42-1-3.62-1-.66,0-1.3.1-1.91.27-.91.27-1.74.72-2.39,1.36-.33.32-.62.68-.84,1.08-.23.4-.4.84-.49,1.31h0c-.06.3-.15.77-.27,1.38-.35,1.82-.92,4.83-1.46,7.68-.54,2.89-1.05,5.6-1.26,6.75-.03.16-.05.28-.07.38H0l.65,1.32c.03.07.35.7,1.15,1.61,1.2,1.37,3.48,3.35,7.44,4.99,1.13.46,2.4.9,3.82,1.29v.49l4.35,5.02s5.03.95,5.44.82c.41-.14,3.94-3.67,3.94-3.67,0,0,3.53,3.53,3.94,3.67s5.43-.82,5.43-.82l4.35-5.02v-.49c4.73-1.29,7.79-3.15,9.68-4.74,1.99-1.67,2.69-3.05,2.73-3.14ZM14.2,13.49c.36-1.9.73-3.87,1.04-5.5.16-.82.3-1.56.41-2.16.12-.61.21-1.08.27-1.37h0c.07-.37.22-.7.44-1,.32-.45.8-.85,1.39-1.12s1.29-.43,2.01-.43c.89,0,1.82.23,2.68.74.95.56,1.7.89,2.33,1.08.31.09.6.15.86.18.26.03.49.04.68.04.18,0,.33,0,.46,0,.21,0,.48,0,.78-.03.46-.04,1.02-.13,1.63-.33s1.28-.5,1.96-.96c.41-.27.84-.47,1.28-.6s.88-.19,1.32-.19c.48,0,.95.07,1.38.21.66.2,1.24.54,1.67.96.21.21.4.44.53.68.14.24.24.5.29.77h0c.06.29.15.76.27,1.37.35,1.81.92,4.82,1.45,7.66.07.38.14.75.21,1.12H13.99c.07-.37.14-.74.21-1.12ZM43.11,26.7c-3.69,1.44-8.94,2.57-16.33,2.57-5.16,0-9.27-.56-12.54-1.38-4.9-1.23-7.9-3.07-9.67-4.56-.53-.45-.96-.87-1.28-1.23h47c-.06.07-.13.14-.2.22-1.16,1.22-3.29,2.94-6.97,4.38Z" style="stroke-width: 0px;"/>
  <path fill="#000" d="M6.56,42.89c1.21-2.34,3.06-4.16,4.29-5.46.68-.72,1.29-1.27,1.71-1.64.21-.18.38-.32.5-.41.06-.04.1-.08.13-.1.01,0,.02-.02.03-.02h0s0,0,0,0h-.01s0-.02,0-.02l-1.07-1.46s-1.16.85-2.63,2.39c-1.46,1.55-3.27,3.82-4.65,6.75" style="stroke-width: 0px;"/>
  <path fill="#000" d="M48.71,43.07c-1.38-2.93-3.09-5.21-4.55-6.76-1.46-1.55-2.59-2.37-2.63-2.39l-1.06,1.46-.02.03s1.09.8,2.44,2.24c1.22,1.3,2.9,3.12,4.09,5.42" style="stroke-width: 0px;"/>
  <path stroke="#111" d="M42.72,39.58H10.83c-1.51,0-2.9.62-3.88,1.61-.99.99-1.61,2.37-1.61,3.88v17.76c0,1.51.62,2.9,1.61,3.88.98.99,2.37,1.61,3.88,1.61h31.89c1.51,0,2.89-.62,3.88-1.61.99-.98,1.61-2.37,1.61-3.88v-17.76c0-1.51-.62-2.89-1.61-3.88-.99-.99-2.38-1.61-3.88-1.61Z" style="fill: none; stroke-miterlimit: 10; stroke-width: 1.64px;"/>
  <path stroke="#000" d="M70.47,40.23c-.92-.56-1.99-.85-3.03-.85-.96,0-1.91.23-2.79.7l-11.68,6.23v15.46l11.68,6.23c.88.47,1.83.7,2.79.7,1.04,0,2.11-.28,3.04-.84,1.77-1.07,2.86-2.99,2.86-5.07v-17.49c0-2.08-1.09-4-2.87-5.06Z" style="fill: none; stroke-miterlimit: 10; stroke-width: 1.64px;"/>
  <path stroke="#000" d="M34.51,77.51h3.35v-4.19h-21.83v4.19h3.02l-6.23,13.7c-.34.75,0,1.63.74,1.97l2.06.94c.75.34,1.63,0,1.97-.74l6.37-14.01v16.21c0,.82.66,1.49,1.49,1.49h2.68c.82,0,1.48-.67,1.48-1.49v-16.21l6.36,14.01c.34.74,1.22,1.08,1.97.74l2.06-.94c.75-.34,1.08-1.22.74-1.97l-6.23-13.7Z" style="fill: none; stroke-miterlimit: 10; stroke-width: 1.64px;"/>
</svg>